<svg version="1.1" id="Layer_1" xmlns="http://www.w3.org/2000/svg" xmlns:xlink="http://www.w3.org/1999/xlink" x="0px" y="0px"
	 width="100%" viewBox="0 0 1024 1024" enable-background="new 0 0 1024 1024" xml:space="preserve">
<path fill="#000000" opacity="1.000000" stroke="none" 
	d="
M702.639893,197.283752 
	C780.314819,242.335007 834.239929,307.187592 866.506470,390.209839 
	C878.802124,421.846588 885.865967,454.806152 888.448120,488.722687 
	C890.387756,514.200012 890.244202,539.634094 887.182800,564.975830 
	C881.005920,616.106812 864.791626,663.747620 837.475708,707.616272 
	C808.079285,754.826050 770.958679,794.513916 724.550598,825.272461 
	C678.964294,855.486450 629.256470,875.434631 575.223389,884.479370 
	C552.339294,888.309998 529.341309,890.809265 506.141724,889.986511 
	C441.547455,887.695862 381.053223,870.781311 324.971375,838.433105 
	C281.299286,813.242981 243.426926,781.284973 212.866867,741.109741 
	C177.951721,695.209167 153.951309,644.285217 143.615479,587.207703 
	C138.215637,557.388000 136.717789,527.473572 138.503799,497.223083 
	C142.268906,433.452454 161.738419,374.868469 195.979355,321.191437 
	C236.009109,258.439667 290.006897,211.518036 357.840820,180.758728 
	C390.755402,165.833603 425.126801,155.788788 460.937378,150.422562 
	C479.593140,147.626984 498.281860,145.817535 517.088379,146.091888 
	C583.210571,147.056564 644.996521,164.056915 702.639893,197.283752 
M845.696045,490.907928 
	C845.558777,486.208984 842.671631,485.329926 838.611938,485.371460 
	C809.133911,485.673279 779.654236,486.541779 750.176453,485.430481 
	C745.874695,485.268311 744.282715,487.143494 744.308105,491.402374 
	C744.412231,508.884949 744.619995,526.363953 744.493530,543.853088 
	C744.144287,592.161743 744.397095,640.474792 744.411133,688.786072 
	C744.413147,695.560059 745.486816,696.689270 752.150879,696.694153 
	C774.978577,696.710938 797.806274,696.714905 820.633972,696.702026 
	C827.443420,696.698242 831.136414,693.008667 831.668945,685.357788 
	C826.670837,685.357788 821.698364,685.360413 816.725830,685.357178 
	C807.364929,685.351074 807.518372,685.351990 807.662781,675.876526 
	C807.719666,672.146790 809.188293,670.807922 812.726929,670.895691 
	C817.722717,671.019653 822.723328,670.942505 827.721924,670.961121 
	C841.818359,671.013550 841.603577,670.923889 847.146973,657.936584 
	C861.511536,624.282593 869.898254,589.161743 873.562012,552.833862 
	C874.403625,544.488464 874.097656,544.112183 865.608032,544.102966 
	C833.283264,544.067932 800.958435,544.058960 768.633789,543.978210 
	C762.331909,543.962463 760.812134,541.864319 761.274536,535.668335 
	C761.665039,530.436401 764.697449,529.653198 769.083008,529.665100 
	C800.574951,529.750427 832.067261,529.700256 863.559448,529.704895 
	C873.997864,529.706421 873.785767,529.719543 873.919128,519.263306 
	C873.978699,514.591187 872.289917,513.273987 867.799194,513.320007 
	C849.639099,513.506165 831.475647,513.408936 813.313782,513.335144 
	C810.992188,513.325684 808.291199,513.971252 806.427917,511.046265 
	C810.222778,508.085541 809.488220,504.515625 807.677979,501.165619 
	C809.277527,499.417419 811.052063,499.891174 812.648560,499.636475 
	C820.962769,498.310211 829.277100,499.687347 837.591003,499.613464 
	C844.968689,499.547882 845.611938,498.984467 845.696045,490.907928 
M261.024811,500.187744 
	C263.880005,501.855011 264.272186,504.580688 264.264893,507.535126 
	C264.242249,516.699890 264.275543,525.864868 264.267792,535.029724 
	C264.260498,543.683167 263.827850,544.127502 255.303757,544.126831 
	C223.643372,544.124390 191.982437,544.199097 160.323166,544.006226 
	C155.493881,543.976807 153.776215,545.402466 154.193665,550.266785 
	C154.962112,559.221130 155.803864,568.148010 157.251984,577.028625 
	C164.000107,618.411743 178.282944,657.076965 198.955719,693.466553 
	C200.118729,695.513733 201.534149,696.738708 204.068649,696.719421 
	C214.732422,696.638184 225.397186,696.654785 236.061417,696.688049 
	C239.854202,696.699890 241.517105,694.701538 241.587662,691.125610 
	C241.653397,687.794067 241.649399,684.460815 241.647446,681.128357 
	C241.640121,668.563904 241.625046,668.192139 229.031403,668.554688 
	C219.599747,668.826233 210.362869,669.767212 203.309540,661.569031 
	C202.274475,660.365967 199.220825,660.665222 200.066040,658.068542 
	C200.734970,656.013367 203.072403,656.185059 204.841034,656.163330 
	C218.669220,655.993286 232.498856,655.806519 246.327271,655.852966 
	C252.287979,655.872986 254.283310,658.145264 254.324844,664.200378 
	C254.387726,673.364807 254.459778,682.531616 254.310944,691.693909 
	C254.251709,695.340698 255.597626,696.832520 259.273071,696.726196 
	C265.100586,696.557678 270.938110,696.573669 276.767700,696.693054 
	C281.298950,696.785767 282.856842,694.679993 282.850708,690.272400 
	C282.758026,623.951965 282.729279,557.631287 282.817566,491.310913 
	C282.823700,486.707886 281.252808,485.285767 276.703644,485.309601 
	C247.065506,485.464935 217.425980,485.428131 187.787323,485.327271 
	C183.626877,485.313110 181.165527,486.129517 181.242752,491.061554 
	C181.358063,498.427399 181.392853,499.059723 187.351379,499.082977 
	C208.505600,499.165588 229.660629,499.059906 250.815262,499.001160 
	C253.990845,498.992340 257.146790,499.066132 261.024811,500.187744 
M519.348633,644.491455 
	C519.347961,647.656433 519.531006,650.834900 519.298950,653.982788 
	C519.025757,657.687866 520.507996,659.007568 524.179382,658.964783 
	C534.670898,658.842590 545.170898,658.778015 555.656067,659.084106 
	C560.495361,659.225464 561.874329,657.516418 561.845886,652.750610 
	C561.651672,620.271606 561.656311,587.790649 561.786499,555.311157 
	C561.807800,550.002563 560.836182,545.584229 557.646667,541.009033 
	C549.152161,528.824341 551.072876,513.579407 561.480347,504.279999 
	C573.286194,493.731140 590.223755,495.805725 600.462097,509.119873 
	C602.310120,511.523071 603.835510,513.753906 607.524780,513.729614 
	C628.677551,513.590515 649.832214,513.624390 670.985352,513.753174 
	C675.111572,513.778320 676.453552,511.959076 676.770447,508.095428 
	C677.463379,499.647003 678.667664,491.241364 679.409729,482.795959 
	C680.722290,467.858276 681.081360,452.879852 680.800720,437.888550 
	C680.780762,436.820343 681.100281,435.476562 679.359009,434.840332 
	C674.877563,437.511200 671.995422,441.746094 669.578735,446.314789 
	C666.467834,452.196136 663.924011,458.408081 659.824890,463.712311 
	C651.906433,473.958801 642.037842,480.573822 628.487854,480.381744 
	C619.162170,480.249573 609.808044,479.941528 600.511108,480.479492 
	C586.910583,481.266479 574.181946,480.121033 564.514038,468.963867 
	C564.427734,468.864319 564.204590,468.883484 563.526001,468.729126 
	C556.133057,474.405121 547.808899,479.146271 538.635864,482.382507 
	C524.350525,487.422302 519.344299,494.707245 519.341797,510.074951 
	C519.334412,554.547974 519.345215,599.020996 519.348633,644.491455 
M406.502136,480.373779 
	C395.584625,480.761902 384.844910,480.759338 375.642059,473.266815 
	C368.212494,467.218109 362.902924,459.769409 359.047058,451.094666 
	C356.278992,444.867065 352.780670,439.121063 346.586761,434.810394 
	C344.908691,440.421967 345.298492,445.556824 345.596680,450.660034 
	C346.712463,469.755798 347.836792,488.844330 350.137634,507.857330 
	C350.689056,512.414124 352.103699,513.785217 356.542358,513.744568 
	C376.372467,513.562927 396.206848,513.527710 416.035706,513.769653 
	C420.640167,513.825806 423.567474,512.603394 426.398987,508.755188 
	C435.467865,496.429718 451.035034,494.061890 463.102325,502.647949 
	C476.213196,511.976532 478.163177,529.908813 467.448730,543.255249 
	C465.866119,545.226624 464.322052,546.992065 464.326324,549.796814 
	C464.379639,584.793884 464.377197,619.791138 464.317566,654.788147 
	C464.312378,657.830505 465.580872,658.931763 468.498108,658.919250 
	C479.996643,658.869995 491.495758,658.885071 502.994263,658.952576 
	C506.209808,658.971436 507.769592,657.372742 507.425293,654.361572 
	C506.889740,649.677612 507.718475,645.038147 507.536530,640.387878 
	C506.539856,614.915405 507.528687,589.434082 507.118439,563.957825 
	C506.804565,544.463806 506.995117,524.961853 506.696747,505.467438 
	C506.530731,494.621216 500.794647,486.808960 490.588623,483.224213 
	C481.879059,480.165039 473.480621,476.562592 466.372528,470.585083 
	C463.720154,468.354584 462.055511,468.588898 459.738068,470.985138 
	C453.288055,477.654480 445.577759,480.976166 435.992645,480.446198 
	C426.523163,479.922638 417.000671,480.357330 406.502136,480.373779 
M456.773041,438.738342 
	C472.714508,465.297150 499.462585,477.307129 527.916748,471.237793 
	C552.901062,465.908539 581.496582,438.710999 577.731384,400.436310 
	C574.915283,371.809082 547.204163,345.657379 517.051941,344.385742 
	C467.477295,342.295013 433.185425,393.171600 456.773041,438.738342 
M392.345459,786.658752 
	C395.519592,786.314026 398.954071,787.527100 402.350159,784.961426 
	C396.496094,777.142761 397.749756,768.167175 397.695496,759.395386 
	C397.657837,753.309509 397.378174,753.066833 391.089844,752.983215 
	C386.093597,752.916748 381.095154,752.884399 376.102661,752.701111 
	C372.016296,752.551147 369.315552,750.326477 369.240540,746.251831 
	C369.167328,742.272766 371.493835,739.901001 375.704407,739.426392 
	C381.035583,738.825500 386.351898,738.871094 391.656494,739.422546 
	C395.802734,739.853516 397.970886,738.667053 397.742340,734.031128 
	C397.480164,728.711548 397.678131,723.369690 397.665802,718.037476 
	C397.647186,709.966309 397.589264,709.887573 389.692322,709.885376 
	C372.029510,709.880554 354.366699,709.897888 336.703888,709.912415 
	C297.712555,709.944458 258.721161,709.953979 219.730042,710.065796 
	C216.676910,710.074524 213.534332,708.703125 210.239059,710.260864 
	C210.605194,711.249817 210.748566,712.097595 211.185699,712.748047 
	C216.950241,721.326904 223.383636,729.399048 229.973206,737.348755 
	C231.465347,739.148926 233.473160,739.692139 235.782715,739.643188 
	C240.944183,739.533569 246.112625,739.408081 251.270233,739.560120 
	C256.259460,739.707153 259.435852,742.711182 259.182678,746.619629 
	C258.939911,750.367676 255.144455,753.030029 250.326889,752.729675 
	C247.899887,752.578369 245.466568,751.953064 243.193390,752.788574 
	C242.932495,754.098267 243.555557,754.699341 244.112717,755.282776 
	C253.670029,765.290649 263.805939,774.688232 274.187775,783.829285 
	C276.718933,786.057922 279.566528,786.705139 282.910919,786.697510 
	C319.069641,786.615479 355.228607,786.652161 392.345459,786.658752 
M629.262268,731.338196 
	C629.277954,732.838196 629.337891,734.339355 629.299866,735.838013 
	C629.227661,738.690186 630.613525,739.408081 633.360352,739.392517 
	C666.687988,739.204224 700.016357,739.131531 733.344543,739.048645 
	C734.671387,739.045349 736.010620,739.159790 737.323730,739.355957 
	C742.190125,740.083313 744.779846,742.742920 744.280823,746.746826 
	C743.703186,751.382141 740.487305,752.394348 736.356323,752.409180 
	C704.040222,752.525085 671.724487,752.723633 639.408630,752.897522 
	C637.408936,752.908325 635.408691,752.960693 633.409607,752.932434 
	C630.530823,752.891785 629.226562,754.127869 629.227051,757.146545 
	C629.228638,766.708740 630.565674,776.479553 624.591187,785.191589 
	C628.012634,786.613770 630.835266,786.633301 633.659912,786.633545 
	C670.825439,786.636658 707.990967,786.609009 745.156311,786.694153 
	C748.375427,786.701538 750.944397,785.782715 753.338623,783.728638 
	C762.706909,775.690979 771.578674,767.133667 780.134888,758.248108 
	C781.319580,757.017883 783.079773,755.986267 782.906006,753.840210 
	C781.377502,752.653320 779.656372,753.002014 778.041443,752.991211 
	C774.042419,752.964294 770.042236,753.108154 766.043335,753.076599 
	C761.214539,753.038452 758.107483,750.586487 757.879822,746.775269 
	C757.659363,743.083679 760.519836,740.142395 765.139221,739.354736 
	C766.121277,739.187256 767.123291,739.038574 768.115295,739.043701 
	C776.112000,739.084839 784.113098,739.035095 792.102417,739.312195 
	C794.502869,739.395447 796.470276,738.983704 797.893921,737.180908 
	C804.188477,729.209961 810.406006,721.177979 816.609192,713.135498 
	C817.090698,712.511108 817.403992,711.649841 816.770325,710.667053 
	C814.376587,709.417236 811.671936,710.015198 809.063782,710.004089 
	C750.740112,709.755737 692.413208,710.460449 634.093262,709.393738 
	C630.285828,709.324097 629.081970,710.804138 629.198486,714.383911 
	C629.372009,719.711609 629.254700,725.048828 629.262268,731.338196 
M458.978760,352.349945 
	C462.265411,349.533478 465.367889,346.459656 468.874237,343.950104 
	C478.381134,337.145752 488.970184,332.885071 500.642670,331.626923 
	C505.161041,331.139862 507.191711,329.415527 507.064819,324.368317 
	C506.717285,310.546936 506.841644,296.708374 507.060120,282.881073 
	C507.130554,278.424988 505.496826,276.901154 501.178619,277.341217 
	C489.759125,278.505005 478.306671,279.326843 467.121155,282.188721 
	C456.141083,284.998016 445.302368,288.181366 434.924927,292.815613 
	C431.051788,294.545227 430.817535,296.770203 433.703308,299.569122 
	C438.188080,303.918823 442.602478,307.878387 449.872528,306.074890 
	C455.700287,304.629242 459.903137,307.697205 460.238831,312.496033 
	C460.569000,317.216461 456.919250,320.267883 450.802216,320.307770 
	C438.621460,320.387207 428.888184,315.181671 421.296417,305.990509 
	C418.540009,302.653412 416.346069,302.617706 412.961823,304.906921 
	C401.041107,312.970551 390.083527,322.136566 380.225769,332.611298 
	C378.925690,333.992706 377.017365,335.108215 377.221558,337.567200 
	C379.826538,339.356720 382.677032,338.643921 385.430908,338.331757 
	C388.754059,337.955048 392.030945,337.597015 395.350464,338.458282 
	C398.519501,339.280487 400.331909,341.174316 400.244904,344.461060 
	C400.157990,347.744232 398.661224,350.347809 395.320953,351.166382 
	C392.918579,351.755157 390.380951,351.957855 387.896545,352.013184 
	C381.733704,352.150421 375.566742,352.094513 369.401581,352.139435 
	C367.917267,352.150238 366.073364,351.729279 365.119080,352.976624 
	C361.232422,358.057098 358.020782,363.514740 355.924927,370.691864 
	C363.661560,370.691864 370.283234,370.676208 376.904755,370.697510 
	C381.102631,370.711029 384.666901,371.828705 385.191803,376.721893 
	C385.612274,380.641296 382.402313,383.704102 377.412903,384.012878 
	C372.930023,384.290314 368.418488,384.071411 363.921265,384.157715 
	C348.452118,384.454559 351.324860,381.391479 347.655762,397.460388 
	C347.618774,397.622375 347.557587,397.779297 347.526550,397.942169 
	C346.915100,401.151001 347.715759,403.007080 351.505096,403.027832 
	C377.660248,403.170837 403.814941,403.408875 429.969421,403.657074 
	C433.618774,403.691681 435.497925,402.230011 435.688904,398.401001 
	C436.075775,390.645172 438.699127,383.475403 441.587402,376.336548 
	C443.181915,372.395386 448.181274,369.022797 446.545471,364.941071 
	C445.000824,361.086823 440.633972,358.351807 437.469543,355.163147 
	C435.603851,353.283112 433.896851,351.699921 430.631195,352.085205 
	C424.318420,352.829926 420.671844,349.824951 419.555817,343.937225 
	C418.451416,338.111053 421.055389,333.283600 426.210602,331.600037 
	C431.594086,329.841919 436.805145,332.255280 439.373901,337.701752 
	C440.075653,339.189667 440.408783,341.059174 441.520020,342.109100 
	C445.626740,345.989410 450.018707,349.565948 454.239410,353.328491 
	C455.955658,354.858459 457.213379,354.191742 458.978760,352.349945 
M662.497437,403.018646 
	C663.830566,403.022919 665.163696,403.026245 666.496826,403.031647 
	C680.583557,403.088623 680.928528,402.493988 676.928711,388.781616 
	C675.907043,385.279053 674.178467,383.908142 670.597900,383.944733 
	C658.600769,384.067352 646.601135,384.049316 634.603394,383.961609 
	C630.731445,383.933319 627.189636,384.303253 623.574646,386.205719 
	C616.791748,389.775421 610.170959,385.114471 610.654236,377.526825 
	C611.024963,371.706360 615.747375,368.424988 622.670776,369.916351 
	C626.993713,370.847534 631.251953,370.828156 635.568298,370.833038 
	C644.900513,370.843536 654.232971,370.869629 663.564636,370.795044 
	C665.669250,370.778229 667.889587,371.263092 670.122009,369.898651 
	C669.823486,364.344299 666.247253,360.225220 663.757874,355.624268 
	C662.137268,352.629059 659.933350,351.548828 656.441589,351.754059 
	C649.795166,352.144653 643.117126,352.051331 636.452393,352.044067 
	C634.470154,352.041901 632.458618,351.805023 630.512634,351.415192 
	C626.494690,350.610321 625.134338,347.782471 625.492249,344.012756 
	C625.833435,340.418762 628.124023,338.746185 631.578247,338.705963 
	C637.653748,338.635284 643.730713,338.686249 649.764282,338.686249 
	C650.035156,335.157623 648.016602,333.883240 646.602356,332.395386 
	C637.965454,323.309021 628.408813,315.263763 618.172668,308.051697 
	C610.945312,302.959503 610.868530,303.075134 604.450012,308.804810 
	C603.331360,309.803406 602.219055,310.815186 601.038269,311.736908 
	C593.254150,317.813202 584.471375,320.862732 574.549133,320.265533 
	C570.422241,320.017151 567.515747,318.065155 567.020752,313.711700 
	C566.582947,309.861450 569.541321,306.535156 573.891113,305.894135 
	C575.510315,305.655518 577.228271,305.758301 578.860352,305.991425 
	C586.600098,307.097046 593.536926,303.209686 596.714478,295.828094 
	C596.366821,295.519318 596.052368,295.096802 595.631836,294.887085 
	C572.906555,283.555389 548.732483,278.187653 523.452881,277.332397 
	C520.005432,277.215759 519.291809,279.075470 519.305481,282.041046 
	C519.373230,296.705688 519.413940,311.371490 519.282410,326.035309 
	C519.251160,329.519043 520.659058,330.427826 523.944153,330.853119 
	C533.576599,332.100189 542.737549,334.979797 551.433777,339.480225 
	C558.634521,343.206787 564.072205,349.100403 570.241882,354.278168 
	C574.551392,350.557037 578.573914,347.084167 582.595581,343.610291 
	C582.973816,343.283539 583.342285,342.945496 583.722473,342.621063 
	C584.912292,341.605621 585.375854,340.224731 585.925354,338.800323 
	C588.188110,332.934998 592.800293,330.393402 598.498352,331.684814 
	C602.613586,332.617493 606.319641,336.945953 606.046082,340.500153 
	C605.501465,347.577576 601.436096,352.176025 595.159668,352.229309 
	C592.176575,352.254669 590.116028,353.357819 588.242798,355.453735 
	C586.579895,357.314240 584.915527,359.244476 582.948364,360.746582 
	C579.380432,363.471161 578.920105,366.136108 581.522827,369.980042 
	C587.333862,378.562286 590.248047,388.328094 591.148438,398.535217 
	C591.532532,402.889526 593.207764,403.700500 597.057434,403.643311 
	C618.536072,403.324249 640.017700,403.206390 662.497437,403.018646 
M599.778320,762.499512 
	C599.769043,752.502075 599.881226,742.502502 599.707520,732.507935 
	C599.592834,725.912964 593.704956,721.513794 588.104980,724.577148 
	C581.190613,728.359619 573.747681,731.921692 568.972473,738.616821 
	C566.368225,742.268188 563.106201,743.878662 558.897156,744.024719 
	C556.540405,744.106506 554.290100,744.536438 552.032410,745.183838 
	C534.260437,750.280273 516.263306,752.876221 497.734436,750.405090 
	C492.624908,749.723572 487.386871,749.590027 482.354858,751.158569 
	C477.434113,752.692322 472.767303,751.223022 468.107330,750.135437 
	C465.353638,749.492859 463.446808,747.557007 463.147583,744.520325 
	C462.908966,742.098816 462.216888,739.919434 460.101959,738.494385 
	C452.345184,733.267822 445.494354,726.585449 435.268311,725.714600 
	C431.422150,725.387024 429.695770,726.373108 428.307983,729.423462 
	C427.384155,731.453979 427.197571,733.589905 427.197601,735.769714 
	C427.197784,750.266052 427.149719,764.762695 427.220947,779.258667 
	C427.252014,785.580688 428.290161,786.632996 434.472931,786.637207 
	C487.128113,786.672729 539.783325,786.673279 592.438477,786.657837 
	C597.875427,786.656250 599.514343,785.047913 599.668152,779.494568 
	C599.815674,774.165894 599.747864,768.831238 599.778320,762.499512 
M400.288818,609.410950 
	C400.448761,612.558289 400.223267,615.691650 400.911072,618.849976 
	C404.009399,633.076416 418.045074,636.369385 426.190430,645.858948 
	C428.832428,642.596985 430.755219,640.099487 432.808319,637.714233 
	C436.821228,633.052246 441.684570,629.447571 447.762054,628.306030 
	C451.991180,627.511841 452.982941,625.457336 452.951355,621.497070 
	C452.785431,600.670898 452.715668,579.841370 452.946594,559.016663 
	C453.000885,554.119568 451.791992,551.842041 446.559113,551.447632 
	C433.489075,550.462524 425.622467,542.866333 422.317078,530.524048 
	C421.390747,527.065308 419.771820,526.079468 416.442535,526.107178 
	C405.613861,526.197388 394.783142,526.016357 383.953339,526.030212 
	C382.442322,526.032166 380.536621,525.482178 379.650879,527.538086 
	C380.097534,529.374329 381.654114,530.207458 382.875732,531.261536 
	C395.003174,541.725464 400.762146,554.864075 400.341492,570.946167 
	C400.014832,583.434021 400.287109,595.937622 400.288818,609.410950 
M625.781921,571.594666 
	C624.946899,552.211548 634.074707,537.860840 650.574768,526.200562 
	C635.366516,526.200562 622.058044,526.236572 608.750061,526.172729 
	C605.796570,526.158569 604.894592,527.777161 604.126343,530.314026 
	C599.960938,544.069214 591.442505,550.896484 577.413513,551.568604 
	C574.434631,551.711243 573.236816,552.451355 573.248108,555.522949 
	C573.331421,578.159363 573.342163,600.796265 573.284729,623.432739 
	C573.277405,626.338989 574.462219,627.464905 577.253906,628.010620 
	C582.380676,629.013000 586.875732,631.412109 590.970215,634.773560 
	C594.614502,637.765381 596.814514,641.914978 600.258667,645.752625 
	C605.434753,640.350952 611.693542,636.828857 617.192078,632.294983 
	C623.098877,627.424500 625.880188,621.229370 625.796265,613.516052 
	C625.647766,599.869507 625.771851,586.219971 625.781921,571.594666 
M688.143372,830.023132 
	C702.929260,821.244629 717.676697,812.410278 730.800354,800.800720 
	C728.142517,800.072876 725.708191,800.069946 723.273865,800.073364 
	C703.776428,800.101013 684.275452,799.905518 664.782654,800.221008 
	C644.976379,800.541443 625.179382,799.676758 605.351318,800.585083 
	C596.125671,801.007629 586.713867,800.669189 577.408997,800.159851 
	C572.481934,799.890076 571.002319,801.833313 571.257019,806.545593 
	C571.598206,812.860352 571.631531,819.221008 571.287109,825.534058 
	C571.023926,830.358887 572.702515,831.800842 577.520325,831.769165 
	C608.515564,831.565247 639.512817,831.702637 670.508789,831.576111 
	C676.145996,831.553040 681.829285,831.491516 688.143372,830.023132 
M410.500000,831.667053 
	C423.815369,831.670471 437.132843,831.538940 450.444885,831.751160 
	C455.052612,831.824585 456.718475,830.014465 456.610992,825.578796 
	C456.449829,818.927673 456.404144,812.261047 456.680817,805.616577 
	C456.855255,801.427917 455.228546,800.263306 451.185730,800.151123 
	C438.922028,799.810730 426.670929,800.396912 414.401123,800.216003 
	C376.960693,799.664001 339.507202,799.989929 302.058838,800.012451 
	C300.488525,800.013367 298.738159,799.429016 296.875458,801.271667 
	C298.694855,802.733276 300.381683,804.212952 302.191803,805.522156 
	C313.120667,813.426331 324.735046,820.285278 335.985107,827.697449 
	C340.244690,830.503845 344.617859,831.627441 349.581482,831.616333 
	C369.554169,831.571594 389.527130,831.639221 410.500000,831.667053 
M738.085693,394.428436 
	C757.991150,412.189545 792.515076,401.887268 796.059143,373.030457 
	C797.812439,358.754303 793.499329,347.650848 782.349609,339.394775 
	C771.190979,331.132050 758.605835,329.630280 746.032104,335.813141 
	C723.511169,346.887421 719.582642,375.072754 738.085693,394.428436 
M357.977783,426.525909 
	C365.493744,433.718750 369.381927,443.197235 374.320587,452.057678 
	C379.941132,462.141571 387.925079,468.389984 400.478424,467.770538 
	C412.609131,467.171967 424.796967,467.441254 436.951080,467.714478 
	C444.586121,467.886139 448.784515,462.986389 453.243103,458.870056 
	C449.502350,450.091553 443.446045,446.810333 434.717957,448.308105 
	C432.452515,448.696899 430.061829,448.429779 427.732147,448.355560 
	C422.822418,448.199127 420.623108,446.180908 420.630280,441.949524 
	C420.637543,437.661774 423.234589,435.032104 427.872101,434.776703 
	C430.197845,434.648651 432.536835,434.665741 434.866669,434.730713 
	C437.953033,434.816772 439.207794,433.760529 438.121368,430.514130 
	C437.173248,427.681061 436.207397,424.766815 435.914398,421.822296 
	C435.491211,417.569672 433.459442,416.310669 429.354767,416.333038 
	C404.368530,416.469391 379.381165,416.386261 354.394287,416.428253 
	C352.541840,416.431366 350.348694,415.839508 349.006134,418.340118 
	C351.846802,420.917755 354.662506,423.472687 357.977783,426.525909 
M605.923584,443.106689 
	C604.783630,447.133392 602.015625,448.594604 597.989807,448.344208 
	C595.500671,448.189392 592.931213,448.677429 590.506287,448.254761 
	C581.870789,446.749664 577.247070,451.399780 573.881714,458.834229 
	C578.480835,463.787933 583.048279,468.187836 591.016479,467.797394 
	C602.482910,467.235535 614.015625,467.283600 625.488281,467.790588 
	C638.051025,468.345734 646.864014,462.654388 652.148682,452.036652 
	C658.626099,439.022705 666.043274,427.010040 678.079407,418.403625 
	C678.290466,418.252686 678.295288,417.813232 678.459045,417.319061 
	C676.717285,416.077026 674.690918,416.382660 672.754944,416.382385 
	C649.099915,416.379028 625.444763,416.379761 601.789856,416.434052 
	C599.303040,416.439758 596.815369,416.775085 594.331116,416.992188 
	C592.696289,417.135040 591.499146,417.844879 591.111450,419.590454 
	C590.043213,424.400574 588.949036,429.204987 587.844849,434.101410 
	C591.515564,435.229340 594.858215,434.474701 598.141724,434.680725 
	C602.997498,434.985413 606.016418,437.084778 605.923584,443.106689 
M541.496704,831.691467 
	C545.660339,831.692444 549.829285,831.564148 553.985962,831.734802 
	C557.409668,831.875427 558.780884,830.531494 558.716125,827.071045 
	C558.579041,819.745972 558.579468,812.413513 558.752808,805.089417 
	C558.842285,801.308655 557.111755,800.184143 553.612915,800.193665 
	C526.966003,800.266541 500.318756,800.286926 473.671936,800.204224 
	C470.177063,800.193359 468.930847,801.561768 468.998993,804.928833 
	C469.140472,811.921143 469.332123,818.928650 469.019806,825.908264 
	C468.810974,830.575195 470.508545,831.838135 475.046509,831.794189 
	C496.861877,831.582642 518.680359,831.694153 541.496704,831.691467 
M468.400635,856.505798 
	C468.394165,859.998596 468.530701,863.499023 468.342834,866.982056 
	C468.136108,870.814392 469.961517,872.283325 473.576508,872.654297 
	C500.450195,875.412415 527.312073,875.349915 554.184875,872.654602 
	C557.422607,872.329834 558.931946,870.957458 558.844116,867.584595 
	C558.709961,862.432556 558.845703,857.273621 558.856323,852.117615 
	C558.870544,845.191833 558.866333,845.136047 552.024902,845.121704 
	C527.741699,845.070862 503.458313,845.071106 479.175049,845.032104 
	C466.478790,845.011780 468.587524,844.222229 468.400635,856.505798 
M654.198669,603.695740 
	C658.408447,604.374756 660.396912,602.512878 661.659363,598.433472 
	C666.797180,581.831665 669.111816,564.701416 671.644653,547.610413 
	C672.535583,541.598572 674.341003,535.636719 673.442688,528.923767 
	C667.442688,529.311951 662.911377,532.493164 658.527039,535.573486 
	C647.744812,543.148865 638.658264,552.246582 637.827393,566.332581 
	C637.161865,577.615967 637.507812,588.959229 637.414917,600.276001 
	C637.393494,602.879333 638.911255,603.708069 641.284363,603.682129 
	C645.280701,603.638428 649.278015,603.684753 654.198669,603.695740 
M388.655457,583.501160 
	C388.536743,577.519226 389.029785,571.449646 388.187286,565.571472 
	C385.396667,546.100952 371.457489,536.296753 355.164124,528.769714 
	C354.421753,528.426758 353.539886,528.330261 352.611420,529.579895 
	C353.150330,533.279968 353.781433,537.339600 354.327667,541.410645 
	C356.646790,558.694336 358.859070,576.000366 363.613525,592.838928 
	C367.354706,606.088867 366.551270,603.372742 377.497314,603.659790 
	C379.825226,603.720886 382.158112,603.604065 384.485382,603.676147 
	C387.431976,603.767334 388.717834,602.433899 388.666748,599.475525 
	C388.580597,594.485107 388.650482,589.491882 388.655457,583.501160 
M317.515533,553.826355 
	C321.574677,563.599365 328.527740,570.282471 338.595947,573.703552 
	C344.104004,575.575195 345.420319,574.575439 344.415985,568.980469 
	C340.803467,548.855530 338.804535,528.527527 336.546692,508.226410 
	C336.010651,503.406586 336.284546,498.312439 333.864044,493.545959 
	C324.878845,496.471344 318.277588,502.093048 316.757385,510.998291 
	C314.380463,524.921997 314.088531,539.086304 317.515533,553.826355 
M160.694382,529.720581 
	C188.644119,529.718872 216.593857,529.725159 244.543594,529.708862 
	C250.510712,529.705383 250.993408,529.186951 251.094391,523.148621 
	C251.111084,522.150818 251.095276,521.152222 251.082611,520.154114 
	C250.996124,513.336426 250.953781,513.268127 244.029785,513.269958 
	C217.577393,513.276855 191.124954,513.276733 164.672653,513.335327 
	C153.583786,513.359924 154.083572,511.499512 153.939316,524.089050 
	C153.889389,528.445496 155.428528,530.308289 160.694382,529.720581 
M685.392151,549.734436 
	C684.935791,558.078430 681.968445,566.175049 682.365845,574.696533 
	C696.631714,573.768677 710.174194,560.580566 710.721436,547.096008 
	C711.126099,537.123169 711.036804,527.123474 710.925354,517.138489 
	C710.814209,507.182648 705.500366,500.356781 697.234802,495.424713 
	C693.582336,493.245300 691.987305,494.846130 691.510864,498.395416 
	C691.002869,502.178925 690.772583,505.998901 690.312317,509.789764 
	C688.731262,522.811707 687.102539,535.827942 685.392151,549.734436 
M619.470642,674.987549 
	C634.066223,657.411560 646.656250,638.605835 655.641052,617.019409 
	C650.597046,615.763000 646.129578,616.573120 641.722961,616.359314 
	C638.900879,616.222412 637.598328,617.342285 637.254028,620.344238 
	C636.387451,627.901184 632.704712,634.152588 627.416138,639.506226 
	C623.764343,643.202942 619.419006,645.990479 615.158569,648.905212 
	C611.170105,651.633972 606.738464,654.337708 605.971680,659.565796 
	C604.554810,669.225830 605.530457,678.942810 606.573425,689.036743 
	C610.717224,684.532837 614.861023,680.028931 619.470642,674.987549 
M573.257019,691.500000 
	C573.257019,698.889160 573.257019,706.278320 573.257019,714.975708 
	C576.490540,712.632080 578.614685,711.136169 580.692993,709.579163 
	C593.616272,699.897400 593.719116,699.892334 593.642517,683.948792 
	C593.602661,675.664246 594.519165,667.317688 592.717407,659.105042 
	C590.598877,649.448975 582.166565,641.105164 573.258179,640.283752 
	C573.258179,657.056885 573.258179,673.778442 573.257019,691.500000 
M421.075012,680.288086 
	C421.040375,675.627502 420.725647,670.948181 421.036346,666.310791 
	C421.509796,659.244507 418.418671,654.150879 413.047455,650.086426 
	C411.456055,648.882202 409.847198,647.690186 408.169006,646.613159 
	C398.141998,640.178284 390.412689,632.092041 388.498108,619.716797 
	C388.265717,618.214539 387.711365,616.561523 385.889923,616.495422 
	C381.325928,616.329346 376.715546,615.801514 371.142578,617.098999 
	C383.148895,643.999023 398.801910,667.381226 419.556488,687.675232 
	C421.587402,685.193848 420.828278,683.114319 421.075012,680.288086 
M445.345886,642.746277 
	C436.941071,648.885498 432.853180,657.059814 433.137970,667.562256 
	C433.372314,676.205139 433.147430,684.859863 433.206635,693.508728 
	C433.218933,695.302063 432.767456,697.389282 434.108673,698.803589 
	C439.433899,704.418762 445.425812,709.201721 451.987213,713.442078 
	C453.709351,710.561096 453.696747,708.195740 453.559906,705.895264 
	C452.383270,686.116760 453.415894,666.316284 452.914825,646.531799 
	C452.734711,639.419434 452.261597,639.102173 445.345886,642.746277 
M588.284363,866.717224 
	C610.244019,861.790100 631.973328,856.165100 652.211792,845.829834 
	C644.820374,845.282959 637.545837,845.284973 630.271240,845.282593 
	C612.470276,845.276855 594.669373,845.255554 576.868408,845.279053 
	C574.621826,845.282043 571.740112,844.728943 571.668152,848.262451 
	C571.530334,855.025269 571.628113,861.792908 571.628113,868.816711 
	C577.817688,869.163452 582.608704,867.796875 588.284363,866.717224 
M422.500183,845.267944 
	C406.612610,845.267944 390.725006,845.267944 374.837433,845.267944 
	C386.632629,851.622314 399.121735,855.541565 411.662750,859.324768 
	C423.782898,862.981079 436.119202,865.762695 448.487579,868.401184 
	C454.951263,869.780090 455.875763,868.986694 455.914307,862.565002 
	C455.939331,858.399963 455.747955,854.227173 455.944000,850.071472 
	C456.117706,846.389038 454.681793,845.066406 450.990082,845.147949 
	C441.830414,845.350342 432.663971,845.246582 422.500183,845.267944 
M280.601837,310.299347 
	C282.196533,305.779053 279.767700,303.014404 276.341797,300.780457 
	C273.629211,299.011658 270.977478,299.332520 268.555695,301.447296 
	C265.585541,304.040924 264.235840,307.421326 266.471130,310.755341 
	C269.223297,314.860321 269.004120,319.227264 269.029633,323.673706 
	C269.080231,332.490967 269.058441,341.308685 269.048401,350.126221 
	C269.036407,360.690948 269.028168,360.691132 258.699646,361.356262 
	C258.367676,361.377655 258.031494,361.363129 257.703339,361.409027 
	C254.572403,361.846863 252.253571,363.302795 252.208160,366.738770 
	C252.160645,370.336060 254.432831,372.000977 257.772217,372.630463 
	C261.387756,373.311981 266.108307,370.647186 268.466156,374.306061 
	C270.465454,377.408508 268.909180,381.787384 269.196228,385.589325 
	C269.221252,385.920685 269.218445,386.254425 269.220825,386.587128 
	C269.234955,388.558105 269.432465,390.328491 272.139130,390.143738 
	C274.488190,389.983398 275.878174,389.010651 275.835114,386.458221 
	C275.781830,383.297974 275.916229,380.130951 275.761810,376.977020 
	C275.602386,373.721558 277.045349,372.455719 280.209503,372.603882 
	C282.528992,372.712524 284.902649,372.802643 287.177795,372.437592 
	C290.154053,371.960022 292.710388,370.456360 292.651764,366.997498 
	C292.590363,363.379852 290.070618,361.801941 286.776001,361.422546 
	C285.303833,361.252991 283.772156,361.326813 282.296143,361.515015 
	C277.671600,362.104584 275.601105,360.484131 275.735321,355.492096 
	C275.994537,345.849884 276.013733,336.185883 275.660675,326.548218 
	C275.445801,320.682983 276.038635,315.344421 280.601837,310.299347 
M464.349396,681.566162 
	C464.340363,684.895813 464.447815,688.230957 464.290863,691.553650 
	C464.119598,695.179443 465.720886,696.716431 469.298187,696.696167 
	C480.618622,696.632019 491.939789,696.620667 503.260193,696.682495 
	C506.553680,696.700500 507.712952,695.063049 507.591003,692.029419 
	C507.377289,686.713074 507.146942,681.396606 507.024719,676.077820 
	C506.963593,673.418579 505.793732,672.053467 503.101105,672.058594 
	C491.448730,672.080688 479.796387,672.108398 468.144012,672.111816 
	C465.435272,672.112610 464.173370,673.366333 464.330719,676.104980 
	C464.416534,677.598450 464.347870,679.100769 464.349396,681.566162 
M526.675171,672.017944 
	C519.340515,672.172302 519.339905,672.172302 519.339966,679.630432 
	C519.340027,683.787415 519.449402,687.947937 519.308777,692.100098 
	C519.204346,695.181458 520.224304,696.729614 523.551086,696.702759 
	C534.857239,696.611389 546.165283,696.596863 557.471130,696.704102 
	C560.827454,696.735901 561.802429,695.177124 561.737671,692.126038 
	C561.631836,687.140137 561.538696,682.140564 561.793030,677.164734 
	C561.995117,673.209534 560.396057,671.884521 556.566772,671.950256 
	C546.925476,672.115723 537.279663,672.016724 526.675171,672.017944 
M519.517700,198.988770 
	C518.333801,197.820282 517.077698,196.715302 515.981689,195.469482 
	C513.978577,193.192627 512.213745,193.398575 510.157379,195.508804 
	C504.004883,201.822540 497.810150,208.098343 491.498138,214.251755 
	C489.051422,216.637024 489.066589,218.733871 491.384369,221.008545 
	C497.672455,227.179565 503.988800,233.321854 510.265594,239.504333 
	C512.464600,241.670349 514.479675,241.689575 516.681030,239.445938 
	C522.505066,233.510040 528.357849,227.600571 534.294067,221.777252 
	C536.998779,219.123932 536.944031,216.673752 534.365967,214.068863 
	C529.568787,209.221832 524.784790,204.361649 519.517700,198.988770 
M662.409302,243.712738 
	C660.235901,245.082932 660.132874,247.275436 660.244507,249.467606 
	C660.435425,253.221024 659.097290,254.637680 655.012817,254.576675 
	C648.476990,254.479019 641.621155,252.983597 635.573303,257.092651 
	C634.811768,257.610077 634.005066,257.308960 633.208557,256.962860 
	C628.296692,254.828537 623.094727,255.100861 617.959595,255.427078 
	C615.276001,255.597549 611.064392,255.314651 610.994507,258.671112 
	C610.917725,262.357666 615.202393,261.687958 617.778748,261.783905 
	C629.676880,262.226959 641.584534,262.547028 653.489929,262.591919 
	C657.558838,262.607269 660.147400,263.128754 660.207825,268.064514 
	C660.248901,271.423157 662.510132,273.681000 666.100098,273.510406 
	C669.584045,273.344818 670.955322,270.951447 670.881775,267.693817 
	C670.793396,263.783875 672.724121,262.474091 676.470215,262.640411 
	C681.123108,262.847015 685.793213,262.651398 690.455750,262.663605 
	C693.522278,262.671631 695.281250,260.813965 695.478027,258.141846 
	C695.708008,255.019302 692.915222,255.157761 690.796082,255.111603 
	C686.135803,255.010071 681.466003,254.906982 676.812012,255.097092 
	C672.896240,255.257050 671.104126,253.987366 671.020752,249.750900 
	C670.902039,243.715454 669.496643,242.821457 662.409302,243.712738 
M530.090698,731.614319 
	C540.079407,730.331787 549.505188,727.338867 558.470825,722.711609 
	C563.686218,720.019836 561.614807,715.434814 561.417053,711.663574 
	C561.221191,707.927002 557.577698,709.378662 555.375793,709.333740 
	C547.561584,709.174194 539.741943,709.293274 531.924316,709.288391 
	C519.312866,709.280518 519.263489,709.274658 519.345459,721.825378 
	C519.415039,732.478821 517.858093,731.815979 530.090698,731.614319 
M505.701843,709.786682 
	C494.104034,708.659607 482.476013,709.594604 470.864899,709.306702 
	C468.536102,709.248901 465.568756,708.435547 464.967896,712.149475 
	C464.387054,715.739563 463.151428,719.621765 467.383392,721.904419 
	C478.494507,727.897461 490.252686,731.605469 503.010193,731.773132 
	C505.998352,731.812439 507.567444,730.465515 507.367126,727.698425 
	C506.949249,721.926270 507.771027,716.079041 505.701843,709.786682 
M351.664062,259.949982 
	C346.058533,258.825928 342.514313,255.487839 340.956360,250.002243 
	C340.330902,247.800034 338.811371,246.577805 336.566193,246.640900 
	C334.298798,246.704620 334.350128,248.799393 333.882324,250.312927 
	C332.973938,253.251740 331.760803,255.993820 328.850311,257.446472 
	C326.769745,258.484894 324.573578,259.294250 322.417969,260.179016 
	C320.580658,260.933105 319.236877,262.115234 319.297638,264.236938 
	C319.354645,266.226410 320.911560,267.177185 322.501373,267.654388 
	C328.765259,269.534607 333.486206,272.719604 335.257843,279.609924 
	C335.961029,282.344940 338.766296,282.788940 339.747375,279.701355 
	C341.813019,273.200653 345.830963,269.246521 352.417023,267.637817 
	C354.225891,267.196014 355.784821,266.040405 355.819672,263.827545 
	C355.855682,261.542145 354.272034,260.695068 351.664062,259.949982 
M418.980438,237.346680 
	C418.940094,234.581558 420.385101,233.617569 423.045929,233.583527 
	C428.370605,233.515427 433.691833,233.207230 439.015717,233.037033 
	C441.864532,232.945969 443.899750,232.043411 443.900482,228.725800 
	C443.901276,225.243179 441.472565,225.319199 439.049286,225.317642 
	C434.217957,225.314545 429.382660,225.169830 424.556641,225.323563 
	C421.120972,225.432983 418.768341,224.793320 418.498535,220.679306 
	C418.294128,217.562485 416.257263,216.025284 413.045258,216.120346 
	C410.024445,216.209793 408.439087,217.740158 408.192902,220.701172 
	C407.959381,223.509964 407.029633,225.548477 403.661285,225.322830 
	C401.533783,225.180313 400.154572,226.040298 399.992065,228.394302 
	C399.823029,230.843414 400.423462,232.905090 403.167389,233.135315 
	C406.581116,233.421753 407.290924,235.482590 407.815918,238.380508 
	C408.426727,241.752060 410.657928,244.369003 414.260010,244.264236 
	C417.731140,244.163269 418.644348,241.195480 418.980438,237.346680 
M678.485657,650.983276 
	C678.263428,652.655273 678.406860,654.261475 678.948730,655.892517 
	C680.444763,660.395691 683.244141,663.439636 688.124023,663.884155 
	C692.604126,664.292114 696.218872,662.617249 698.753235,658.740784 
	C701.469849,654.585449 701.080017,650.465027 698.446289,646.591064 
	C695.954529,642.925781 692.312073,640.757690 687.794861,641.421692 
	C682.846436,642.149048 680.026733,645.545227 678.485657,650.983276 
M335.791138,663.930847 
	C336.455994,663.945679 337.132080,664.046692 337.783997,663.962097 
	C344.217896,663.127136 348.333618,658.133911 347.774445,651.881470 
	C347.221008,645.693237 341.835480,640.876648 335.992371,641.343994 
	C330.154205,641.810913 325.921600,647.179138 326.224548,653.732422 
	C326.459869,658.823853 329.102448,661.857361 335.791138,663.930847 
M277.950378,435.721039 
	C275.006805,439.236816 275.836884,442.499207 278.899597,445.304169 
	C281.162415,447.376556 283.780548,447.276001 286.027283,445.148956 
	C288.627075,442.687653 289.349060,439.699402 287.059998,436.729431 
	C284.778442,433.769348 281.862610,432.676788 277.950378,435.721039 
M812.504822,431.039612 
	C810.527649,429.338989 810.344360,426.177063 807.249207,424.789764 
	C804.819214,427.410553 801.972717,430.322510 802.925659,433.979767 
	C803.741943,437.112701 807.167664,438.355011 810.635864,437.991364 
	C812.345825,437.812012 814.578613,438.684143 815.457581,436.509399 
	C816.394226,434.191956 814.275818,433.001953 812.504822,431.039612 
M737.171387,452.458069 
	C738.830505,455.432343 740.908691,457.768341 744.641174,455.841553 
	C747.679810,454.272919 748.704041,451.501770 747.610046,448.299011 
	C746.728638,445.718445 744.547241,444.088104 741.870056,444.622681 
	C738.214905,445.352417 736.235596,447.797699 737.171387,452.458069 
M221.379166,363.921417 
	C225.472763,362.982574 227.392685,360.447296 226.184006,356.362823 
	C225.374466,353.627106 223.206131,352.054443 220.142944,352.267792 
	C217.248581,352.469360 215.561600,354.149445 215.272369,356.935272 
	C214.869064,360.819763 216.742050,363.185150 221.379166,363.921417 
M695.552002,333.027496 
	C696.519775,331.784729 696.961365,330.341949 696.725769,328.818024 
	C696.239136,325.671234 694.464783,323.532227 691.170105,323.497742 
	C688.270874,323.467377 686.622131,325.482208 686.176941,328.168549 
	C685.637024,331.426361 687.247803,333.637238 690.347839,334.589661 
	C691.998169,335.096680 693.644653,334.732880 695.552002,333.027496 
M226.853256,422.480316 
	C224.961807,420.612488 223.110840,418.701263 221.167358,416.889252 
	C219.266403,415.116821 216.736115,414.641693 215.944824,417.380981 
	C214.599457,422.038330 219.497482,423.134094 221.868454,425.582397 
	C223.598785,427.369202 225.581512,426.558350 227.066422,424.883209 
	C227.395157,424.512329 227.183426,423.662354 226.853256,422.480316 
M707.370850,255.292618 
	C703.268372,257.085205 702.264038,259.477722 704.791199,261.609222 
	C706.660400,263.185699 708.903076,263.605560 710.518555,261.524841 
	C712.936584,258.410370 710.561890,256.788025 707.370850,255.292618 
M334.202148,333.291046 
	C332.384216,333.124451 330.403564,332.727905 329.601929,335.018555 
	C329.111023,336.421326 329.747345,337.647156 330.996857,338.409393 
	C332.218323,339.154510 333.662598,339.252136 334.739349,338.356232 
	C336.423889,336.954681 336.340271,335.245209 334.202148,333.291046 
M394.267059,228.184937 
	C392.706299,226.927368 391.151398,225.339600 389.134430,227.385788 
	C388.251007,228.281982 388.006012,229.466263 388.858887,230.545837 
	C390.047485,232.050385 391.775116,232.013016 393.427673,231.778137 
	C395.442444,231.491760 395.945251,230.386368 394.267059,228.184937 
z"/>
<path fill="#000000" opacity="1.000000" stroke="none" 
	d="
M812.490601,635.423279 
	C803.330933,634.988647 793.754578,625.301880 793.065369,616.250427 
	C792.235046,605.345459 791.689453,594.265686 793.720947,583.392212 
	C796.053589,570.906799 807.941711,561.148071 820.746948,560.701721 
	C836.730164,560.144470 849.831848,567.768616 852.299561,581.058044 
	C854.692383,593.943970 854.752869,607.350159 851.590515,620.192200 
	C849.427246,628.977112 842.016174,633.467712 833.567627,635.776733 
	C831.074158,636.458252 827.906677,636.261169 828.102417,632.724426 
	C828.277832,629.553589 824.998108,624.863342 831.425354,623.553345 
	C838.678833,622.074951 843.374939,612.000793 840.377197,605.181458 
	C839.626465,603.473755 838.230835,603.214966 836.701965,603.210144 
	C827.545410,603.181335 818.388611,603.179871 809.231934,603.199097 
	C807.681702,603.202332 806.304199,603.540222 805.581177,605.227539 
	C802.629700,612.116089 806.349060,620.871887 813.588196,622.972229 
	C819.174744,624.593079 816.579163,628.804321 816.985779,632.020447 
	C817.354919,634.940247 815.487610,635.770630 812.490601,635.423279 
M837.519348,580.106567 
	C830.956299,573.124329 824.037415,571.315979 816.497620,574.612244 
	C809.101196,577.845825 805.789490,582.808655 806.334412,589.851562 
	C807.590332,590.985168 809.152527,590.659058 810.608643,590.663879 
	C818.751160,590.690796 826.894226,590.706909 835.036438,590.645813 
	C840.367126,590.605774 841.164185,589.476624 839.597229,584.303894 
	C839.217102,583.049316 838.516052,581.891968 837.519348,580.106567 
z"/>
<path fill="#000000" opacity="1.000000" stroke="none" 
	d="
M831.551514,660.077209 
	C824.950562,660.143494 818.797424,660.092651 812.650879,660.269531 
	C808.977112,660.375183 807.447876,658.785461 807.734070,655.197510 
	C807.826355,654.040955 807.849121,652.862427 807.740295,651.709412 
	C807.360474,647.684631 809.362793,646.523560 813.101196,646.641418 
	C819.079102,646.830078 825.068115,646.643616 831.052185,646.669556 
	C836.235596,646.692017 838.972290,648.655090 839.039734,652.802490 
	C839.113953,657.364929 836.638794,659.859619 831.551514,660.077209 
z"/>
<path fill="#000000" opacity="1.000000" stroke="none" 
	d="
M783.318726,508.920349 
	C783.490479,512.061523 782.359985,513.409912 779.569885,513.350708 
	C775.260620,513.259277 770.948364,513.318970 766.638489,513.245483 
	C762.288757,513.171387 761.642273,509.949677 761.522156,506.687469 
	C761.401184,503.403961 761.936096,500.091248 766.160156,499.736969 
	C770.445251,499.377533 774.760254,499.287445 779.063232,499.261597 
	C781.719910,499.245667 783.506470,500.392212 783.321838,503.472534 
	C783.222839,505.124329 783.316406,506.787720 783.318726,508.920349 
z"/>
<path fill="#000000" opacity="1.000000" stroke="none" 
	d="
M766.708069,597.152466 
	C766.419067,589.608215 771.782593,592.337280 775.183228,591.886841 
	C779.125610,591.364746 780.546997,593.491455 780.292603,597.228516 
	C780.135071,599.543823 780.113953,601.883423 780.245789,604.199890 
	C780.454346,607.864075 778.809143,609.098389 775.213562,609.153015 
	C767.056152,609.276794 766.786255,609.172180 766.718079,601.114746 
	C766.708313,599.952332 766.709045,598.789734 766.708069,597.152466 
z"/>
<path fill="#000000" opacity="1.000000" stroke="none" 
	d="
M772.116211,635.056641 
	C767.668152,635.368408 766.342468,633.326599 766.694580,629.615479 
	C766.850403,627.973633 766.907410,626.276489 766.674561,624.652344 
	C765.983032,619.827942 767.931030,617.834900 772.727966,618.672302 
	C775.165100,619.097778 778.852234,617.189514 779.752502,620.457764 
	C780.919189,624.693359 781.212036,629.488403 779.447205,633.620056 
	C778.357239,636.171875 774.951599,634.752075 772.116211,635.056641 
z"/>
<path fill="#000000" opacity="1.000000" stroke="none" 
	d="
M766.716553,678.942261 
	C766.732666,676.976990 766.795105,675.486206 766.753906,673.998169 
	C766.672424,671.053772 768.139343,669.774414 771.001770,669.841614 
	C772.655762,669.880493 774.314758,669.894104 775.966248,669.812744 
	C779.133179,669.656799 780.551453,671.087708 780.323120,674.265625 
	C780.216614,675.747742 780.310730,677.243774 780.301697,678.733398 
	C780.259888,685.604004 779.898132,685.658203 773.008301,686.014343 
	C767.877625,686.279541 765.976807,684.326721 766.716553,678.942261 
z"/>
<path fill="#000000" opacity="1.000000" stroke="none" 
	d="
M776.375977,644.507935 
	C779.265137,644.649170 780.433044,645.864441 780.306274,648.357239 
	C780.230408,649.849243 780.304626,651.348633 780.299622,652.844666 
	C780.274414,660.358276 780.271484,660.421692 772.951721,660.230774 
	C770.784485,660.174316 767.474976,661.160767 767.070190,658.078796 
	C766.500732,653.743530 765.266663,648.824890 767.870850,645.029053 
	C769.437195,642.746094 773.159485,644.236389 776.375977,644.507935 
z"/>
<path fill="#000000" opacity="1.000000" stroke="none" 
	d="
M264.028015,612.969604 
	C265.037354,630.956055 259.965546,631.341919 246.546844,631.175232 
	C228.051453,630.945312 209.551071,631.152954 191.053482,631.050842 
	C181.171417,630.996338 178.721680,628.360779 178.727737,618.468750 
	C178.737442,602.636902 178.702744,586.805054 178.738419,570.973267 
	C178.756409,562.992126 181.616394,559.953186 189.439392,559.912598 
	C210.436905,559.803650 231.435211,559.764526 252.432938,559.810303 
	C260.656921,559.828186 263.368652,562.841187 263.439056,571.002319 
	C263.558319,584.827515 263.822113,598.651428 264.028015,612.969604 
M194.983612,618.666260 
	C211.635376,618.665649 228.290527,618.476990 244.936890,618.776489 
	C250.076553,618.868958 251.697784,616.973022 251.621567,612.169373 
	C251.439346,600.682739 251.311523,589.187561 251.576736,577.705444 
	C251.677444,573.346069 249.988098,572.231262 246.045074,572.258728 
	C229.394135,572.374878 212.741516,572.383362 196.090652,572.266479 
	C192.626358,572.242126 190.942520,573.196594 190.720490,576.940491 
	C189.970367,589.589600 190.780380,602.238647 190.480377,614.884338 
	C190.425125,617.212708 191.557785,618.682373 194.983612,618.666260 
z"/>
<path fill="#000000" opacity="1.000000" stroke="none" 
	d="
M537.151733,425.000793 
	C522.212830,443.081604 497.405457,441.350708 487.707825,421.865356 
	C481.730408,409.854980 484.961365,395.449921 495.597198,386.690918 
	C505.651611,378.410736 521.021790,378.538025 531.647156,386.989441 
	C541.809204,395.072327 544.985718,409.270508 539.280579,421.205505 
	C538.708191,422.402863 538.004150,423.537323 537.151733,425.000793 
z"/>
<path fill="#000000" opacity="1.000000" stroke="none" 
	d="
M282.201233,767.901489 
	C279.503174,764.019348 279.503174,764.019348 279.833679,754.245850 
	C279.052490,752.769409 277.456451,753.425903 276.287170,752.941956 
	C272.746338,751.476501 271.122437,748.822998 271.508636,745.066650 
	C271.874756,741.505493 274.258087,740.045715 277.577606,739.537354 
	C282.055389,738.851562 286.548859,739.043701 291.041229,739.044128 
	C307.863464,739.045776 324.685822,739.037903 341.507874,739.099670 
	C344.329926,739.110046 347.169098,739.306763 349.967896,739.668457 
	C354.065308,740.198059 356.316040,742.800903 356.082733,746.819397 
	C355.851440,750.802856 353.161987,752.314087 349.229675,752.457275 
	C331.916443,753.087280 314.607819,753.161987 297.294464,752.543274 
	C296.163269,752.502808 295.023376,752.705322 293.879364,752.795471 
	C292.625732,755.724121 293.435394,758.573792 293.294922,761.340820 
	C292.948669,768.162720 289.188934,770.591248 282.201233,767.901489 
z"/>
<path fill="#000000" opacity="1.000000" stroke="none" 
	d="
M740.245850,771.464050 
	C735.077087,772.904480 732.670532,770.082031 731.389343,766.188232 
	C730.023743,762.037720 731.759583,758.657288 735.403870,756.525452 
	C738.159546,754.913574 740.903259,755.567322 742.977539,758.002502 
	C745.735779,761.240540 746.048950,764.841797 744.002441,768.573486 
	C743.266907,769.914612 742.054626,770.795166 740.245850,771.464050 
z"/>
<path fill="#000000" opacity="1.000000" stroke="none" 
	d="
M494.254730,304.068085 
	C495.806305,309.141418 494.520416,313.158936 490.451050,315.663300 
	C487.058990,317.750793 483.178772,317.934204 479.749512,315.214264 
	C475.975769,312.221100 475.563171,308.223419 476.887848,303.987579 
	C477.961792,300.553497 480.515137,298.341187 484.098694,297.986786 
	C488.643127,297.537445 492.132599,299.433380 494.254730,304.068085 
z"/>
<path fill="#000000" opacity="1.000000" stroke="none" 
	d="
M402.316284,370.080688 
	C407.087616,368.418945 410.938660,369.293091 413.763885,373.057281 
	C416.088776,376.154846 415.877594,379.591156 414.082520,382.907745 
	C412.072937,386.620667 408.668243,387.632355 404.776978,387.232208 
	C400.606934,386.803406 398.205414,384.056946 397.300568,380.253174 
	C396.258759,375.873718 398.162994,372.535889 402.316284,370.080688 
z"/>
<path fill="#000000" opacity="1.000000" stroke="none" 
	d="
M533.754150,314.230774 
	C530.689453,310.013519 530.494019,305.935211 533.150696,301.932251 
	C535.122131,298.961823 538.038147,297.525665 541.671387,298.028290 
	C546.098450,298.640686 548.782410,301.114441 549.722961,305.569489 
	C550.612732,309.784149 549.388062,313.225281 545.849609,315.474396 
	C541.818909,318.036346 537.710876,317.909027 533.754150,314.230774 
z"/>
<path fill="#000000" opacity="1.000000" stroke="none" 
	d="
M433.630981,566.128845 
	C437.926178,570.696472 438.387817,574.718140 435.352570,578.698242 
	C432.715424,582.156311 427.560760,583.212280 423.665619,581.092346 
	C419.961121,579.076233 417.981354,574.049438 419.331604,569.876343 
	C420.008881,567.783020 420.888123,565.789185 423.561707,565.869446 
	C425.196747,566.934265 424.195435,568.347534 424.263947,569.577881 
	C424.406433,572.137329 425.749847,573.737366 428.293243,573.694275 
	C430.687897,573.653564 431.654846,571.959900 431.773773,569.649902 
	C431.843933,568.286926 430.215149,566.087463 433.630981,566.128845 
z"/>
<path fill="#000000" opacity="1.000000" stroke="none" 
	d="
M433.585754,603.052246 
	C437.100464,605.986145 438.546570,609.329163 437.274292,613.459534 
	C436.472382,616.063049 435.209595,618.357605 431.821991,618.300476 
	C429.927765,615.537048 433.210297,611.960938 429.958740,609.439941 
	C426.668152,606.888672 424.105804,608.682373 421.208862,610.464661 
	C419.316895,608.077942 420.286926,606.288391 421.839539,604.683594 
	C425.157898,601.253845 429.044189,600.956970 433.585754,603.052246 
z"/>
<path fill="#000000" opacity="1.000000" stroke="none" 
	d="
M607.333252,572.082520 
	C606.756165,578.289001 603.593079,581.833496 598.654846,582.233521 
	C593.954407,582.614380 590.131348,579.639709 588.996094,574.718140 
	C587.951111,570.187927 590.357910,565.540344 594.684082,563.734497 
	C600.407410,561.345459 605.888367,564.781921 607.333252,572.082520 
z"/>
<path fill="#000000" opacity="1.000000" stroke="none" 
	d="
M594.691650,619.973022 
	C590.225769,617.591675 588.369507,614.074219 588.802307,609.526794 
	C589.144714,605.929504 591.168152,603.293518 594.639832,602.148132 
	C598.228638,600.964233 601.619568,601.641357 604.253906,604.436584 
	C606.939819,607.286621 607.944458,610.571716 606.417480,614.497742 
	C604.980774,618.191772 602.403259,620.076843 598.550049,620.308533 
	C597.401733,620.377625 596.237915,620.188721 594.691650,619.973022 
z"/>
<path fill="#000000" opacity="1.000000" stroke="none" 
	d="
M392.386841,435.394958 
	C396.625397,432.452606 400.697693,431.889618 404.620117,434.962402 
	C407.565887,437.270050 408.833374,440.428040 407.907440,444.215485 
	C406.560608,449.724579 401.673889,452.600586 396.088165,451.208496 
	C391.651398,450.102692 388.788849,444.608551 390.201202,439.645630 
	C390.598267,438.250427 391.449921,436.984619 392.386841,435.394958 
z"/>
<path fill="#000000" opacity="1.000000" stroke="none" 
	d="
M624.820801,433.528320 
	C629.336914,432.508911 632.895020,433.658966 635.158081,437.186035 
	C637.268738,440.475494 637.222656,444.122467 634.981079,447.493561 
	C632.821777,450.740967 629.651489,451.845001 625.912109,451.303192 
	C622.126221,450.754608 619.499268,448.766327 618.710449,444.833405 
	C617.611023,439.351685 619.071289,436.527924 624.820801,433.528320 
z"/>
<path fill="#000000" opacity="1.000000" stroke="none" 
	d="
M520.511597,222.263092 
	C517.607056,225.390244 514.585632,227.159515 510.557220,225.891846 
	C505.468231,224.290405 502.852264,218.960297 504.680542,214.004776 
	C506.310394,209.587097 512.019653,207.372314 516.718567,209.334869 
	C522.016846,211.547760 523.526855,216.247177 520.511597,222.263092 
z"/>
</svg>